  0
SECTION
  2
HEADER
  9
$ACADVER
  1
AC1009
  9
$MEASUREMENT
 70
1
  9
$DWGCODEPAGE
  3
ANSI_1252
  9
$EXTMIN
 10
0.00
 20
0.00
 30
0.00
  9
$EXTMAX
 10
760.00
 20
680.00
 30
0.00
  0
ENDSEC
  0
SECTION
  2
TABLES
  0
TABLE
  2
LTYPE
 70
1
  0
LTYPE
  2
CONTINUOUS
 70
0
  3
Solid line
 72
65
 73
0
 40
0.00
  0
ENDTAB
  0
TABLE
  2
LAYER
 70
8
  0
LAYER
  2
0
 70
0
 62
7
  6
CONTINUOUS
  0
LAYER
  2
1
 70
0
 62
7
  6
CONTINUOUS
  0
LAYER
  2
2
 70
0
 62
7
  6
CONTINUOUS
  0
LAYER
  2
3
 70
0
 62
7
  6
CONTINUOUS
  0
LAYER
  2
4
 70
0
 62
7
  6
CONTINUOUS
  0
LAYER
  2
6
 70
0
 62
7
  6
CONTINUOUS
  0
LAYER
  2
7
 70
0
 62
7
  6
CONTINUOUS
  0
LAYER
  2
14
 70
0
 62
7
  6
CONTINUOUS
  0
ENDTAB
  0
ENDSEC
  0
SECTION
  2
BLOCKS
  0
BLOCK
  8
0
  2
FRONT
 70
0
 10
0.00
 20
0.00
 30
0.00
  3
FRONT
  0
POLYLINE
  8
1
 66
1
 10
0.00
 20
0.00
 30
0.00
 70
1
  0
VERTEX
  8
1
 10
0.00
 20
-30.00
 30
0.00
  0
VERTEX
  8
1
 10
260.00
 20
-30.00
 30
0.00
  0
VERTEX
  8
1
 10
260.00
 20
402.02
 30
0.00
  0
VERTEX
  8
1
 10
259.98
 20
405.80
 30
0.00
  0
VERTEX
  8
1
 10
259.93
 20
409.58
 30
0.00
  0
VERTEX
  8
1
 10
259.84
 20
413.34
 30
0.00
  0
VERTEX
  8
1
 10
259.71
 20
417.08
 30
0.00
  0
VERTEX
  8
1
 10
259.55
 20
420.81
 30
0.00
  0
VERTEX
  8
1
 10
259.35
 20
424.52
 30
0.00
  0
VERTEX
  8
1
 10
259.11
 20
428.20
 30
0.00
  0
VERTEX
  8
1
 10
258.84
 20
431.87
 30
0.00
  0
VERTEX
  8
1
 10
258.53
 20
435.53
 30
0.00
  0
VERTEX
  8
1
 10
258.18
 20
439.16
 30
0.00
  0
VERTEX
  8
1
 10
257.80
 20
442.77
 30
0.00
  0
VERTEX
  8
1
 10
257.38
 20
446.37
 30
0.00
  0
VERTEX
  8
1
 10
256.92
 20
449.95
 30
0.00
  0
VERTEX
  8
1
 10
256.43
 20
453.51
 30
0.00
  0
VERTEX
  8
1
 10
255.90
 20
457.05
 30
0.00
  0
VERTEX
  8
1
 10
255.33
 20
460.57
 30
0.00
  0
VERTEX
  8
1
 10
254.73
 20
464.07
 30
0.00
  0
VERTEX
  8
1
 10
254.09
 20
467.55
 30
0.00
  0
VERTEX
  8
1
 10
253.41
 20
471.02
 30
0.00
  0
VERTEX
  8
1
 10
252.70
 20
474.47
 30
0.00
  0
VERTEX
  8
1
 10
251.95
 20
477.89
 30
0.00
  0
VERTEX
  8
1
 10
251.16
 20
481.30
 30
0.00
  0
VERTEX
  8
1
 10
250.34
 20
484.69
 30
0.00
  0
VERTEX
  8
1
 10
249.48
 20
488.06
 30
0.00
  0
VERTEX
  8
1
 10
248.58
 20
491.41
 30
0.00
  0
VERTEX
  8
1
 10
247.65
 20
494.75
 30
0.00
  0
VERTEX
  8
1
 10
246.68
 20
498.06
 30
0.00
  0
VERTEX
  8
1
 10
245.67
 20
501.35
 30
0.00
  0
VERTEX
  8
1
 10
244.62
 20
504.63
 30
0.00
  0
VERTEX
  8
1
 10
243.54
 20
507.88
 30
0.00
  0
VERTEX
  8
1
 10
242.42
 20
511.12
 30
0.00
  0
VERTEX
  8
1
 10
241.27
 20
514.34
 30
0.00
  0
VERTEX
  8
1
 10
240.07
 20
517.54
 30
0.00
  0
VERTEX
  8
1
 10
238.84
 20
520.71
 30
0.00
  0
VERTEX
  8
1
 10
237.58
 20
523.87
 30
0.00
  0
VERTEX
  8
1
 10
236.27
 20
527.01
 30
0.00
  0
VERTEX
  8
1
 10
234.93
 20
530.13
 30
0.00
  0
VERTEX
  8
1
 10
233.55
 20
533.23
 30
0.00
  0
VERTEX
  8
1
 10
232.14
 20
536.31
 30
0.00
  0
VERTEX
  8
1
 10
230.69
 20
539.37
 30
0.00
  0
VERTEX
  8
1
 10
229.20
 20
542.41
 30
0.00
  0
VERTEX
  8
1
 10
227.68
 20
545.43
 30
0.00
  0
VERTEX
  8
1
 10
226.11
 20
548.43
 30
0.00
  0
VERTEX
  8
1
 10
224.52
 20
551.41
 30
0.00
  0
VERTEX
  8
1
 10
222.88
 20
554.37
 30
0.00
  0
VERTEX
  8
1
 10
221.21
 20
557.31
 30
0.00
  0
VERTEX
  8
1
 10
219.50
 20
560.23
 30
0.00
  0
VERTEX
  8
1
 10
217.75
 20
563.13
 30
0.00
  0
VERTEX
  8
1
 10
215.97
 20
566.01
 30
0.00
  0
VERTEX
  8
1
 10
214.15
 20
568.87
 30
0.00
  0
VERTEX
  8
1
 10
212.30
 20
571.71
 30
0.00
  0
VERTEX
  8
1
 10
210.41
 20
574.53
 30
0.00
  0
VERTEX
  8
1
 10
208.48
 20
577.33
 30
0.00
  0
VERTEX
  8
1
 10
206.52
 20
580.11
 30
0.00
  0
VERTEX
  8
1
 10
204.51
 20
582.86
 30
0.00
  0
VERTEX
  8
1
 10
202.48
 20
585.60
 30
0.00
  0
VERTEX
  8
1
 10
200.40
 20
588.32
 30
0.00
  0
VERTEX
  8
1
 10
198.29
 20
591.01
 30
0.00
  0
VERTEX
  8
1
 10
196.15
 20
593.69
 30
0.00
  0
VERTEX
  8
1
 10
193.97
 20
596.34
 30
0.00
  0
VERTEX
  8
1
 10
191.75
 20
598.98
 30
0.00
  0
VERTEX
  8
1
 10
189.49
 20
601.59
 30
0.00
  0
VERTEX
  8
1
 10
187.20
 20
604.18
 30
0.00
  0
VERTEX
  8
1
 10
181.94
 20
610.00
 30
0.00
  0
VERTEX
  8
1
 10
0.00
 20
610.00
 30
0.00
  0
SEQEND
  8
1
  0
POINT
  8
2
 10
0.00
 20
0.00
 30
0.00
  0
POINT
  8
2
 10
250.00
 20
0.00
 30
0.00
  0
POINT
  8
2
 10
250.00
 20
402.00
 30
0.00
  0
POINT
  8
3
 10
249.98
 20
405.70
 30
0.00
  0
POINT
  8
3
 10
249.93
 20
409.39
 30
0.00
  0
POINT
  8
3
 10
249.84
 20
413.05
 30
0.00
  0
POINT
  8
3
 10
249.72
 20
416.70
 30
0.00
  0
POINT
  8
3
 10
249.56
 20
420.32
 30
0.00
  0
POINT
  8
3
 10
249.36
 20
423.93
 30
0.00
  0
POINT
  8
3
 10
249.13
 20
427.51
 30
0.00
  0
POINT
  8
3
 10
248.87
 20
431.08
 30
0.00
  0
POINT
  8
3
 10
248.57
 20
434.63
 30
0.00
  0
POINT
  8
3
 10
248.23
 20
438.16
 30
0.00
  0
POINT
  8
3
 10
247.86
 20
441.67
 30
0.00
  0
POINT
  8
3
 10
247.45
 20
445.16
 30
0.00
  0
POINT
  8
3
 10
247.01
 20
448.63
 30
0.00
  0
POINT
  8
3
 10
246.53
 20
452.08
 30
0.00
  0
POINT
  8
3
 10
246.02
 20
455.51
 30
0.00
  0
POINT
  8
3
 10
245.47
 20
458.92
 30
0.00
  0
POINT
  8
3
 10
244.88
 20
462.32
 30
0.00
  0
POINT
  8
3
 10
244.27
 20
465.69
 30
0.00
  0
POINT
  8
3
 10
243.61
 20
469.05
 30
0.00
  0
POINT
  8
3
 10
242.92
 20
472.38
 30
0.00
  0
POINT
  8
3
 10
242.19
 20
475.70
 30
0.00
  0
POINT
  8
3
 10
241.43
 20
479.00
 30
0.00
  0
POINT
  8
3
 10
240.64
 20
482.27
 30
0.00
  0
POINT
  8
3
 10
239.80
 20
485.53
 30
0.00
  0
POINT
  8
3
 10
238.94
 20
488.77
 30
0.00
  0
POINT
  8
3
 10
238.03
 20
491.99
 30
0.00
  0
POINT
  8
3
 10
237.10
 20
495.19
 30
0.00
  0
POINT
  8
3
 10
236.12
 20
498.37
 30
0.00
  0
POINT
  8
3
 10
235.11
 20
501.53
 30
0.00
  0
POINT
  8
3
 10
234.07
 20
504.67
 30
0.00
  0
POINT
  8
3
 10
232.99
 20
507.80
 30
0.00
  0
POINT
  8
3
 10
231.88
 20
510.90
 30
0.00
  0
POINT
  8
3
 10
230.72
 20
513.98
 30
0.00
  0
POINT
  8
3
 10
229.54
 20
517.05
 30
0.00
  0
POINT
  8
3
 10
228.32
 20
520.09
 30
0.00
  0
POINT
  8
3
 10
227.06
 20
523.12
 30
0.00
  0
POINT
  8
3
 10
225.77
 20
526.13
 30
0.00
  0
POINT
  8
3
 10
224.44
 20
529.11
 30
0.00
  0
POINT
  8
3
 10
223.08
 20
532.08
 30
0.00
  0
POINT
  8
3
 10
221.68
 20
535.03
 30
0.00
  0
POINT
  8
3
 10
220.25
 20
537.96
 30
0.00
  0
POINT
  8
3
 10
218.78
 20
540.87
 30
0.00
  0
POINT
  8
3
 10
217.27
 20
543.76
 30
0.00
  0
POINT
  8
3
 10
215.73
 20
546.63
 30
0.00
  0
POINT
  8
3
 10
214.16
 20
549.48
 30
0.00
  0
POINT
  8
3
 10
212.55
 20
552.32
 30
0.00
  0
POINT
  8
3
 10
210.90
 20
555.13
 30
0.00
  0
POINT
  8
3
 10
209.22
 20
557.93
 30
0.00
  0
POINT
  8
3
 10
207.50
 20
560.70
 30
0.00
  0
POINT
  8
3
 10
205.75
 20
563.46
 30
0.00
  0
POINT
  8
3
 10
203.96
 20
566.19
 30
0.00
  0
POINT
  8
3
 10
202.14
 20
568.91
 30
0.00
  0
POINT
  8
3
 10
200.28
 20
571.61
 30
0.00
  0
POINT
  8
3
 10
198.39
 20
574.28
 30
0.00
  0
POINT
  8
3
 10
196.46
 20
576.94
 30
0.00
  0
POINT
  8
3
 10
194.49
 20
579.58
 30
0.00
  0
POINT
  8
3
 10
192.49
 20
582.20
 30
0.00
  0
POINT
  8
3
 10
190.46
 20
584.80
 30
0.00
  0
POINT
  8
3
 10
188.39
 20
587.38
 30
0.00
  0
POINT
  8
3
 10
186.28
 20
589.95
 30
0.00
  0
POINT
  8
3
 10
184.14
 20
592.49
 30
0.00
  0
POINT
  8
3
 10
181.96
 20
595.01
 30
0.00
  0
POINT
  8
3
 10
179.75
 20
597.52
 30
0.00
  0
POINT
  8
2
 10
177.50
 20
600.00
 30
0.00
  0
POINT
  8
2
 10
0.00
 20
600.00
 30
0.00
  0
POLYLINE
  8
14
 66
1
 10
0.00
 20
0.00
 30
0.00
 70
1
  0
VERTEX
  8
14
 10
0.00
 20
0.00
 30
0.00
  0
VERTEX
  8
14
 10
250.00
 20
0.00
 30
0.00
  0
VERTEX
  8
14
 10
250.00
 20
402.00
 30
0.00
  0
VERTEX
  8
14
 10
249.98
 20
405.70
 30
0.00
  0
VERTEX
  8
14
 10
249.93
 20
409.39
 30
0.00
  0
VERTEX
  8
14
 10
249.84
 20
413.05
 30
0.00
  0
VERTEX
  8
14
 10
249.72
 20
416.70
 30
0.00
  0
VERTEX
  8
14
 10
249.56
 20
420.32
 30
0.00
  0
VERTEX
  8
14
 10
249.36
 20
423.93
 30
0.00
  0
VERTEX
  8
14
 10
249.13
 20
427.51
 30
0.00
  0
VERTEX
  8
14
 10
248.87
 20
431.08
 30
0.00
  0
VERTEX
  8
14
 10
248.57
 20
434.63
 30
0.00
  0
VERTEX
  8
14
 10
248.23
 20
438.16
 30
0.00
  0
VERTEX
  8
14
 10
247.86
 20
441.67
 30
0.00
  0
VERTEX
  8
14
 10
247.45
 20
445.16
 30
0.00
  0
VERTEX
  8
14
 10
247.01
 20
448.63
 30
0.00
  0
VERTEX
  8
14
 10
246.53
 20
452.08
 30
0.00
  0
VERTEX
  8
14
 10
246.02
 20
455.51
 30
0.00
  0
VERTEX
  8
14
 10
245.47
 20
458.92
 30
0.00
  0
VERTEX
  8
14
 10
244.88
 20
462.32
 30
0.00
  0
VERTEX
  8
14
 10
244.27
 20
465.69
 30
0.00
  0
VERTEX
  8
14
 10
243.61
 20
469.05
 30
0.00
  0
VERTEX
  8
14
 10
242.92
 20
472.38
 30
0.00
  0
VERTEX
  8
14
 10
242.19
 20
475.70
 30
0.00
  0
VERTEX
  8
14
 10
241.43
 20
479.00
 30
0.00
  0
VERTEX
  8
14
 10
240.64
 20
482.27
 30
0.00
  0
VERTEX
  8
14
 10
239.80
 20
485.53
 30
0.00
  0
VERTEX
  8
14
 10
238.94
 20
488.77
 30
0.00
  0
VERTEX
  8
14
 10
238.03
 20
491.99
 30
0.00
  0
VERTEX
  8
14
 10
237.10
 20
495.19
 30
0.00
  0
VERTEX
  8
14
 10
236.12
 20
498.37
 30
0.00
  0
VERTEX
  8
14
 10
235.11
 20
501.53
 30
0.00
  0
VERTEX
  8
14
 10
234.07
 20
504.67
 30
0.00
  0
VERTEX
  8
14
 10
232.99
 20
507.80
 30
0.00
  0
VERTEX
  8
14
 10
231.88
 20
510.90
 30
0.00
  0
VERTEX
  8
14
 10
230.72
 20
513.98
 30
0.00
  0
VERTEX
  8
14
 10
229.54
 20
517.05
 30
0.00
  0
VERTEX
  8
14
 10
228.32
 20
520.09
 30
0.00
  0
VERTEX
  8
14
 10
227.06
 20
523.12
 30
0.00
  0
VERTEX
  8
14
 10
225.77
 20
526.13
 30
0.00
  0
VERTEX
  8
14
 10
224.44
 20
529.11
 30
0.00
  0
VERTEX
  8
14
 10
223.08
 20
532.08
 30
0.00
  0
VERTEX
  8
14
 10
221.68
 20
535.03
 30
0.00
  0
VERTEX
  8
14
 10
220.25
 20
537.96
 30
0.00
  0
VERTEX
  8
14
 10
218.78
 20
540.87
 30
0.00
  0
VERTEX
  8
14
 10
217.27
 20
543.76
 30
0.00
  0
VERTEX
  8
14
 10
215.73
 20
546.63
 30
0.00
  0
VERTEX
  8
14
 10
214.16
 20
549.48
 30
0.00
  0
VERTEX
  8
14
 10
212.55
 20
552.32
 30
0.00
  0
VERTEX
  8
14
 10
210.90
 20
555.13
 30
0.00
  0
VERTEX
  8
14
 10
209.22
 20
557.93
 30
0.00
  0
VERTEX
  8
14
 10
207.50
 20
560.70
 30
0.00
  0
VERTEX
  8
14
 10
205.75
 20
563.46
 30
0.00
  0
VERTEX
  8
14
 10
203.96
 20
566.19
 30
0.00
  0
VERTEX
  8
14
 10
202.14
 20
568.91
 30
0.00
  0
VERTEX
  8
14
 10
200.28
 20
571.61
 30
0.00
  0
VERTEX
  8
14
 10
198.39
 20
574.28
 30
0.00
  0
VERTEX
  8
14
 10
196.46
 20
576.94
 30
0.00
  0
VERTEX
  8
14
 10
194.49
 20
579.58
 30
0.00
  0
VERTEX
  8
14
 10
192.49
 20
582.20
 30
0.00
  0
VERTEX
  8
14
 10
190.46
 20
584.80
 30
0.00
  0
VERTEX
  8
14
 10
188.39
 20
587.38
 30
0.00
  0
VERTEX
  8
14
 10
186.28
 20
589.95
 30
0.00
  0
VERTEX
  8
14
 10
184.14
 20
592.49
 30
0.00
  0
VERTEX
  8
14
 10
181.96
 20
595.01
 30
0.00
  0
VERTEX
  8
14
 10
179.75
 20
597.52
 30
0.00
  0
VERTEX
  8
14
 10
177.50
 20
600.00
 30
0.00
  0
VERTEX
  8
14
 10
0.00
 20
600.00
 30
0.00
  0
SEQEND
  8
14
  0
LINE
  8
4
 10
260.00
 20
402.05
 30
0.00
 11
254.00
 21
402.02
 31
0.00
  0
LINE
  8
7
 10
125.00
 20
120.00
 30
0.00
 11
125.00
 21
480.00
 31
0.00
  0
LINE
  8
6
 10
0.00
 20
600.00
 30
0.00
 11
0.00
 21
0.00
 31
0.00
  0
TEXT
  8
1
 10
121.92
 20
292.51
 30
0.00
 40
4.00
  1
Piece Name: Devant
  0
TEXT
  8
1
 10
121.92
 20
286.51
 30
0.00
 40
4.00
  1
Quantity: 1
  0
TEXT
  8
1
 10
121.92
 20
280.51
 30
0.00
 40
4.00
  1
Size: 38
  0
ENDBLK
  8
0
  0
BLOCK
  8
0
  2
BACK
 70
0
 10
0.00
 20
0.00
 30
0.00
  3
BACK
  0
POLYLINE
  8
1
 66
1
 10
0.00
 20
0.00
 30
0.00
 70
1
  0
VERTEX
  8
1
 10
0.00
 20
-30.00
 30
0.00
  0
VERTEX
  8
1
 10
260.00
 20
-30.00
 30
0.00
  0
VERTEX
  8
1
 10
260.00
 20
402.02
 30
0.00
  0
VERTEX
  8
1
 10
259.98
 20
405.80
 30
0.00
  0
VERTEX
  8
1
 10
259.93
 20
409.58
 30
0.00
  0
VERTEX
  8
1
 10
259.84
 20
413.34
 30
0.00
  0
VERTEX
  8
1
 10
259.71
 20
417.08
 30
0.00
  0
VERTEX
  8
1
 10
259.55
 20
420.81
 30
0.00
  0
VERTEX
  8
1
 10
259.35
 20
424.52
 30
0.00
  0
VERTEX
  8
1
 10
259.11
 20
428.20
 30
0.00
  0
VERTEX
  8
1
 10
258.84
 20
431.87
 30
0.00
  0
VERTEX
  8
1
 10
258.53
 20
435.53
 30
0.00
  0
VERTEX
  8
1
 10
258.18
 20
439.16
 30
0.00
  0
VERTEX
  8
1
 10
257.80
 20
442.77
 30
0.00
  0
VERTEX
  8
1
 10
257.38
 20
446.37
 30
0.00
  0
VERTEX
  8
1
 10
256.92
 20
449.95
 30
0.00
  0
VERTEX
  8
1
 10
256.43
 20
453.51
 30
0.00
  0
VERTEX
  8
1
 10
255.90
 20
457.05
 30
0.00
  0
VERTEX
  8
1
 10
255.33
 20
460.57
 30
0.00
  0
VERTEX
  8
1
 10
254.73
 20
464.07
 30
0.00
  0
VERTEX
  8
1
 10
254.09
 20
467.55
 30
0.00
  0
VERTEX
  8
1
 10
253.41
 20
471.02
 30
0.00
  0
VERTEX
  8
1
 10
252.70
 20
474.47
 30
0.00
  0
VERTEX
  8
1
 10
251.95
 20
477.89
 30
0.00
  0
VERTEX
  8
1
 10
251.16
 20
481.30
 30
0.00
  0
VERTEX
  8
1
 10
250.34
 20
484.69
 30
0.00
  0
VERTEX
  8
1
 10
249.48
 20
488.06
 30
0.00
  0
VERTEX
  8
1
 10
248.58
 20
491.41
 30
0.00
  0
VERTEX
  8
1
 10
247.65
 20
494.75
 30
0.00
  0
VERTEX
  8
1
 10
246.68
 20
498.06
 30
0.00
  0
VERTEX
  8
1
 10
245.67
 20
501.35
 30
0.00
  0
VERTEX
  8
1
 10
244.62
 20
504.63
 30
0.00
  0
VERTEX
  8
1
 10
243.54
 20
507.88
 30
0.00
  0
VERTEX
  8
1
 10
242.42
 20
511.12
 30
0.00
  0
VERTEX
  8
1
 10
241.27
 20
514.34
 30
0.00
  0
VERTEX
  8
1
 10
240.07
 20
517.54
 30
0.00
  0
VERTEX
  8
1
 10
238.84
 20
520.71
 30
0.00
  0
VERTEX
  8
1
 10
237.58
 20
523.87
 30
0.00
  0
VERTEX
  8
1
 10
236.27
 20
527.01
 30
0.00
  0
VERTEX
  8
1
 10
234.93
 20
530.13
 30
0.00
  0
VERTEX
  8
1
 10
233.55
 20
533.23
 30
0.00
  0
VERTEX
  8
1
 10
232.14
 20
536.31
 30
0.00
  0
VERTEX
  8
1
 10
230.69
 20
539.37
 30
0.00
  0
VERTEX
  8
1
 10
229.20
 20
542.41
 30
0.00
  0
VERTEX
  8
1
 10
227.68
 20
545.43
 30
0.00
  0
VERTEX
  8
1
 10
226.11
 20
548.43
 30
0.00
  0
VERTEX
  8
1
 10
224.52
 20
551.41
 30
0.00
  0
VERTEX
  8
1
 10
222.88
 20
554.37
 30
0.00
  0
VERTEX
  8
1
 10
221.21
 20
557.31
 30
0.00
  0
VERTEX
  8
1
 10
219.50
 20
560.23
 30
0.00
  0
VERTEX
  8
1
 10
217.75
 20
563.13
 30
0.00
  0
VERTEX
  8
1
 10
215.97
 20
566.01
 30
0.00
  0
VERTEX
  8
1
 10
214.15
 20
568.87
 30
0.00
  0
VERTEX
  8
1
 10
212.30
 20
571.71
 30
0.00
  0
VERTEX
  8
1
 10
210.41
 20
574.53
 30
0.00
  0
VERTEX
  8
1
 10
208.48
 20
577.33
 30
0.00
  0
VERTEX
  8
1
 10
206.52
 20
580.11
 30
0.00
  0
VERTEX
  8
1
 10
204.51
 20
582.86
 30
0.00
  0
VERTEX
  8
1
 10
202.48
 20
585.60
 30
0.00
  0
VERTEX
  8
1
 10
200.40
 20
588.32
 30
0.00
  0
VERTEX
  8
1
 10
198.29
 20
591.01
 30
0.00
  0
VERTEX
  8
1
 10
196.15
 20
593.69
 30
0.00
  0
VERTEX
  8
1
 10
193.97
 20
596.34
 30
0.00
  0
VERTEX
  8
1
 10
191.75
 20
598.98
 30
0.00
  0
VERTEX
  8
1
 10
189.49
 20
601.59
 30
0.00
  0
VERTEX
  8
1
 10
187.20
 20
604.18
 30
0.00
  0
VERTEX
  8
1
 10
181.94
 20
610.00
 30
0.00
  0
VERTEX
  8
1
 10
0.00
 20
610.00
 30
0.00
  0
SEQEND
  8
1
  0
POINT
  8
2
 10
0.00
 20
0.00
 30
0.00
  0
POINT
  8
2
 10
250.00
 20
0.00
 30
0.00
  0
POINT
  8
2
 10
250.00
 20
402.00
 30
0.00
  0
POINT
  8
3
 10
249.98
 20
405.70
 30
0.00
  0
POINT
  8
3
 10
249.93
 20
409.39
 30
0.00
  0
POINT
  8
3
 10
249.84
 20
413.05
 30
0.00
  0
POINT
  8
3
 10
249.72
 20
416.70
 30
0.00
  0
POINT
  8
3
 10
249.56
 20
420.32
 30
0.00
  0
POINT
  8
3
 10
249.36
 20
423.93
 30
0.00
  0
POINT
  8
3
 10
249.13
 20
427.51
 30
0.00
  0
POINT
  8
3
 10
248.87
 20
431.08
 30
0.00
  0
POINT
  8
3
 10
248.57
 20
434.63
 30
0.00
  0
POINT
  8
3
 10
248.23
 20
438.16
 30
0.00
  0
POINT
  8
3
 10
247.86
 20
441.67
 30
0.00
  0
POINT
  8
3
 10
247.45
 20
445.16
 30
0.00
  0
POINT
  8
3
 10
247.01
 20
448.63
 30
0.00
  0
POINT
  8
3
 10
246.53
 20
452.08
 30
0.00
  0
POINT
  8
3
 10
246.02
 20
455.51
 30
0.00
  0
POINT
  8
3
 10
245.47
 20
458.92
 30
0.00
  0
POINT
  8
3
 10
244.88
 20
462.32
 30
0.00
  0
POINT
  8
3
 10
244.27
 20
465.69
 30
0.00
  0
POINT
  8
3
 10
243.61
 20
469.05
 30
0.00
  0
POINT
  8
3
 10
242.92
 20
472.38
 30
0.00
  0
POINT
  8
3
 10
242.19
 20
475.70
 30
0.00
  0
POINT
  8
3
 10
241.43
 20
479.00
 30
0.00
  0
POINT
  8
3
 10
240.64
 20
482.27
 30
0.00
  0
POINT
  8
3
 10
239.80
 20
485.53
 30
0.00
  0
POINT
  8
3
 10
238.94
 20
488.77
 30
0.00
  0
POINT
  8
3
 10
238.03
 20
491.99
 30
0.00
  0
POINT
  8
3
 10
237.10
 20
495.19
 30
0.00
  0
POINT
  8
3
 10
236.12
 20
498.37
 30
0.00
  0
POINT
  8
3
 10
235.11
 20
501.53
 30
0.00
  0
POINT
  8
3
 10
234.07
 20
504.67
 30
0.00
  0
POINT
  8
3
 10
232.99
 20
507.80
 30
0.00
  0
POINT
  8
3
 10
231.88
 20
510.90
 30
0.00
  0
POINT
  8
3
 10
230.72
 20
513.98
 30
0.00
  0
POINT
  8
3
 10
229.54
 20
517.05
 30
0.00
  0
POINT
  8
3
 10
228.32
 20
520.09
 30
0.00
  0
POINT
  8
3
 10
227.06
 20
523.12
 30
0.00
  0
POINT
  8
3
 10
225.77
 20
526.13
 30
0.00
  0
POINT
  8
3
 10
224.44
 20
529.11
 30
0.00
  0
POINT
  8
3
 10
223.08
 20
532.08
 30
0.00
  0
POINT
  8
3
 10
221.68
 20
535.03
 30
0.00
  0
POINT
  8
3
 10
220.25
 20
537.96
 30
0.00
  0
POINT
  8
3
 10
218.78
 20
540.87
 30
0.00
  0
POINT
  8
3
 10
217.27
 20
543.76
 30
0.00
  0
POINT
  8
3
 10
215.73
 20
546.63
 30
0.00
  0
POINT
  8
3
 10
214.16
 20
549.48
 30
0.00
  0
POINT
  8
3
 10
212.55
 20
552.32
 30
0.00
  0
POINT
  8
3
 10
210.90
 20
555.13
 30
0.00
  0
POINT
  8
3
 10
209.22
 20
557.93
 30
0.00
  0
POINT
  8
3
 10
207.50
 20
560.70
 30
0.00
  0
POINT
  8
3
 10
205.75
 20
563.46
 30
0.00
  0
POINT
  8
3
 10
203.96
 20
566.19
 30
0.00
  0
POINT
  8
3
 10
202.14
 20
568.91
 30
0.00
  0
POINT
  8
3
 10
200.28
 20
571.61
 30
0.00
  0
POINT
  8
3
 10
198.39
 20
574.28
 30
0.00
  0
POINT
  8
3
 10
196.46
 20
576.94
 30
0.00
  0
POINT
  8
3
 10
194.49
 20
579.58
 30
0.00
  0
POINT
  8
3
 10
192.49
 20
582.20
 30
0.00
  0
POINT
  8
3
 10
190.46
 20
584.80
 30
0.00
  0
POINT
  8
3
 10
188.39
 20
587.38
 30
0.00
  0
POINT
  8
3
 10
186.28
 20
589.95
 30
0.00
  0
POINT
  8
3
 10
184.14
 20
592.49
 30
0.00
  0
POINT
  8
3
 10
181.96
 20
595.01
 30
0.00
  0
POINT
  8
3
 10
179.75
 20
597.52
 30
0.00
  0
POINT
  8
2
 10
177.50
 20
600.00
 30
0.00
  0
POINT
  8
2
 10
0.00
 20
600.00
 30
0.00
  0
POLYLINE
  8
14
 66
1
 10
0.00
 20
0.00
 30
0.00
 70
1
  0
VERTEX
  8
14
 10
0.00
 20
0.00
 30
0.00
  0
VERTEX
  8
14
 10
250.00
 20
0.00
 30
0.00
  0
VERTEX
  8
14
 10
250.00
 20
402.00
 30
0.00
  0
VERTEX
  8
14
 10
249.98
 20
405.70
 30
0.00
  0
VERTEX
  8
14
 10
249.93
 20
409.39
 30
0.00
  0
VERTEX
  8
14
 10
249.84
 20
413.05
 30
0.00
  0
VERTEX
  8
14
 10
249.72
 20
416.70
 30
0.00
  0
VERTEX
  8
14
 10
249.56
 20
420.32
 30
0.00
  0
VERTEX
  8
14
 10
249.36
 20
423.93
 30
0.00
  0
VERTEX
  8
14
 10
249.13
 20
427.51
 30
0.00
  0
VERTEX
  8
14
 10
248.87
 20
431.08
 30
0.00
  0
VERTEX
  8
14
 10
248.57
 20
434.63
 30
0.00
  0
VERTEX
  8
14
 10
248.23
 20
438.16
 30
0.00
  0
VERTEX
  8
14
 10
247.86
 20
441.67
 30
0.00
  0
VERTEX
  8
14
 10
247.45
 20
445.16
 30
0.00
  0
VERTEX
  8
14
 10
247.01
 20
448.63
 30
0.00
  0
VERTEX
  8
14
 10
246.53
 20
452.08
 30
0.00
  0
VERTEX
  8
14
 10
246.02
 20
455.51
 30
0.00
  0
VERTEX
  8
14
 10
245.47
 20
458.92
 30
0.00
  0
VERTEX
  8
14
 10
244.88
 20
462.32
 30
0.00
  0
VERTEX
  8
14
 10
244.27
 20
465.69
 30
0.00
  0
VERTEX
  8
14
 10
243.61
 20
469.05
 30
0.00
  0
VERTEX
  8
14
 10
242.92
 20
472.38
 30
0.00
  0
VERTEX
  8
14
 10
242.19
 20
475.70
 30
0.00
  0
VERTEX
  8
14
 10
241.43
 20
479.00
 30
0.00
  0
VERTEX
  8
14
 10
240.64
 20
482.27
 30
0.00
  0
VERTEX
  8
14
 10
239.80
 20
485.53
 30
0.00
  0
VERTEX
  8
14
 10
238.94
 20
488.77
 30
0.00
  0
VERTEX
  8
14
 10
238.03
 20
491.99
 30
0.00
  0
VERTEX
  8
14
 10
237.10
 20
495.19
 30
0.00
  0
VERTEX
  8
14
 10
236.12
 20
498.37
 30
0.00
  0
VERTEX
  8
14
 10
235.11
 20
501.53
 30
0.00
  0
VERTEX
  8
14
 10
234.07
 20
504.67
 30
0.00
  0
VERTEX
  8
14
 10
232.99
 20
507.80
 30
0.00
  0
VERTEX
  8
14
 10
231.88
 20
510.90
 30
0.00
  0
VERTEX
  8
14
 10
230.72
 20
513.98
 30
0.00
  0
VERTEX
  8
14
 10
229.54
 20
517.05
 30
0.00
  0
VERTEX
  8
14
 10
228.32
 20
520.09
 30
0.00
  0
VERTEX
  8
14
 10
227.06
 20
523.12
 30
0.00
  0
VERTEX
  8
14
 10
225.77
 20
526.13
 30
0.00
  0
VERTEX
  8
14
 10
224.44
 20
529.11
 30
0.00
  0
VERTEX
  8
14
 10
223.08
 20
532.08
 30
0.00
  0
VERTEX
  8
14
 10
221.68
 20
535.03
 30
0.00
  0
VERTEX
  8
14
 10
220.25
 20
537.96
 30
0.00
  0
VERTEX
  8
14
 10
218.78
 20
540.87
 30
0.00
  0
VERTEX
  8
14
 10
217.27
 20
543.76
 30
0.00
  0
VERTEX
  8
14
 10
215.73
 20
546.63
 30
0.00
  0
VERTEX
  8
14
 10
214.16
 20
549.48
 30
0.00
  0
VERTEX
  8
14
 10
212.55
 20
552.32
 30
0.00
  0
VERTEX
  8
14
 10
210.90
 20
555.13
 30
0.00
  0
VERTEX
  8
14
 10
209.22
 20
557.93
 30
0.00
  0
VERTEX
  8
14
 10
207.50
 20
560.70
 30
0.00
  0
VERTEX
  8
14
 10
205.75
 20
563.46
 30
0.00
  0
VERTEX
  8
14
 10
203.96
 20
566.19
 30
0.00
  0
VERTEX
  8
14
 10
202.14
 20
568.91
 30
0.00
  0
VERTEX
  8
14
 10
200.28
 20
571.61
 30
0.00
  0
VERTEX
  8
14
 10
198.39
 20
574.28
 30
0.00
  0
VERTEX
  8
14
 10
196.46
 20
576.94
 30
0.00
  0
VERTEX
  8
14
 10
194.49
 20
579.58
 30
0.00
  0
VERTEX
  8
14
 10
192.49
 20
582.20
 30
0.00
  0
VERTEX
  8
14
 10
190.46
 20
584.80
 30
0.00
  0
VERTEX
  8
14
 10
188.39
 20
587.38
 30
0.00
  0
VERTEX
  8
14
 10
186.28
 20
589.95
 30
0.00
  0
VERTEX
  8
14
 10
184.14
 20
592.49
 30
0.00
  0
VERTEX
  8
14
 10
181.96
 20
595.01
 30
0.00
  0
VERTEX
  8
14
 10
179.75
 20
597.52
 30
0.00
  0
VERTEX
  8
14
 10
177.50
 20
600.00
 30
0.00
  0
VERTEX
  8
14
 10
0.00
 20
600.00
 30
0.00
  0
SEQEND
  8
14
  0
LINE
  8
4
 10
260.00
 20
402.05
 30
0.00
 11
254.00
 21
402.02
 31
0.00
  0
LINE
  8
7
 10
125.00
 20
120.00
 30
0.00
 11
125.00
 21
480.00
 31
0.00
  0
LINE
  8
6
 10
0.00
 20
600.00
 30
0.00
 11
0.00
 21
0.00
 31
0.00
  0
TEXT
  8
1
 10
121.92
 20
292.51
 30
0.00
 40
4.00
  1
Piece Name: Dos
  0
TEXT
  8
1
 10
121.92
 20
286.51
 30
0.00
 40
4.00
  1
Quantity: 1
  0
TEXT
  8
1
 10
121.92
 20
280.51
 30
0.00
 40
4.00
  1
Size: 38
  0
ENDBLK
  8
0
  0
ENDSEC
  0
SECTION
  2
ENTITIES
  0
TEXT
  8
1
 10
20.00
 20
17.50
 30
0.00
 40
3.00
  1
Style Name: MOD-002
  0
TEXT
  8
1
 10
20.00
 20
12.50
 30
0.00
 40
3.00
  1
Sample Size: 38
  0
TEXT
  8
1
 10
20.00
 20
7.50
 30
0.00
 40
3.00
  1
Units: METRIC
  0
INSERT
  8
1
  2
FRONT
 10
20.00
 20
50.00
 30
0.00
  0
INSERT
  8
1
  2
BACK
 10
300.00
 20
50.00
 30
0.00
  0
ENDSEC
  0
EOF
